HIERARCHY
ROOT Hips
{
	OFFSET 0 0 0
	CHANNELS 6 Xposition Yposition Zposition Yrotation Xrotation Zrotation
	JOINT Spine
	{
		OFFSET -0 8.37147 -2.66841
		CHANNELS 3 Yrotation Xrotation Zrotation
		JOINT Spine1
		{
			OFFSET -0 8.81736 0
			CHANNELS 3 Yrotation Xrotation Zrotation
			JOINT Spine2
			{
				OFFSET -0 8.81736 0
				CHANNELS 3 Yrotation Xrotation Zrotation
				JOINT Spine3
				{
					OFFSET -0 8.81736 0
					CHANNELS 3 Yrotation Xrotation Zrotation
					JOINT Neck
					{
						OFFSET -0 20.2165 3.66841
						CHANNELS 3 Yrotation Xrotation Zrotation
						JOINT Head
						{
							OFFSET -0 10.4643 0
							CHANNELS 3 Yrotation Xrotation Zrotation
							End Site
							{
								OFFSET 0 15 0
							}
						}
					}
					JOINT LeftShoulder
					{
						OFFSET 1.74406 7.24 3.48811
						CHANNELS 3 Yrotation Xrotation Zrotation
						JOINT LeftArm
						{
							OFFSET 15.166 0 0
							CHANNELS 3 Yrotation Xrotation Zrotation
							JOINT LeftForeArm
							{
								OFFSET 25.1836 0 0
								CHANNELS 3 Yrotation Xrotation Zrotation
								JOINT LeftHand
								{
									OFFSET 23.8595 0 0
									CHANNELS 3 Yrotation Xrotation Zrotation
									End Site
									{
										OFFSET 15 0 0
									}
								}
							}
						}
					}
					JOINT RightShoulder
					{
						OFFSET -1.74406 7.24 3.48811
						CHANNELS 3 Yrotation Xrotation Zrotation
						JOINT RightArm
						{
							OFFSET -15.166 0 0
							CHANNELS 3 Yrotation Xrotation Zrotation
							JOINT RightForeArm
							{
								OFFSET -25.1836 0 0
								CHANNELS 3 Yrotation Xrotation Zrotation
								JOINT RightHand
								{
									OFFSET -23.8595 0 0
									CHANNELS 3 Yrotation Xrotation Zrotation
									End Site
									{
										OFFSET -15 0 0
									}
								}
							}
						}
					}
				}
			}
		}
	}
	JOINT LeftUpLeg
	{
		OFFSET 10.4643 -3.48811 2
		CHANNELS 3 Yrotation Xrotation Zrotation
		JOINT LeftLeg
		{
			OFFSET -0 -38.892 2.44168
			CHANNELS 3 Yrotation Xrotation Zrotation
			JOINT LeftFoot
			{
				OFFSET -0 -41.3956 -2.44168
				CHANNELS 3 Yrotation Xrotation Zrotation
				JOINT LeftToeBase
				{
					OFFSET -0 -6.7338 15.6965
					CHANNELS 3 Yrotation Xrotation Zrotation
					End Site
					{
						OFFSET 0 0 5
					}
				}
			}
		}
	}
	JOINT RightUpLeg
	{
		OFFSET -10.4643 -3.48811 2
		CHANNELS 3 Yrotation Xrotation Zrotation
		JOINT RightLeg
		{
			OFFSET -0 -38.892 2.44168
			CHANNELS 3 Yrotation Xrotation Zrotation
			JOINT RightFoot
			{
				OFFSET -0 -41.3956 -2.44168
				CHANNELS 3 Yrotation Xrotation Zrotation
				JOINT RightToeBase
				{
					OFFSET -0 -6.7338 15.6965
					CHANNELS 3 Yrotation Xrotation Zrotation
					End Site
					{
						OFFSET 0 0 5
					}
				}
			}
		}
	}
}
MOTION
Frames: 11
Frame Time: 0.00833333
-112.353442 84.491010 59.676324 -5.512256 -3.815274 6.138472 2.135381 4.638063 0.510979 2.491432 6.075133 -0.340802 2.666695 7.315996 -1.276675 0.006173 8.549988 -3.471975 -4.098300 -6.704378 -1.018704 -1.502710 -8.530629 -2.832171 9.806061 15.113927 -5.122642 -45.019632 -28.095841 -31.419637 -48.222198 -22.613307 37.784190 0.136902 -30.126242 -6.960270 -0.878020 3.905840 -7.364297 26.641468 -2.590748 55.440590 40.696278 -3.984517 -5.617498 -10.974690 -17.636201 15.010980 12.078678 -15.368343 11.970447 0.000000 39.702850 0.000000 -4.580542 -13.481655 -11.290161 0.000000 -3.311891 0.000000 0.916138 -18.339038 -27.255594 0.000000 41.748518 0.000000 -0.008729 -13.472697 17.764280 0.000000 -2.552567 0.000000
-112.322778 84.498920 60.060052 -6.051390 -5.722104 6.930435 2.265145 5.188272 0.502869 2.540178 6.333783 -0.588708 2.785275 7.626897 -1.771852 0.040783 8.915446 -3.106673 -3.958389 -5.407701 -2.397731 -1.749941 -7.699923 -1.499143 11.029327 15.596382 -5.285074 -47.235212 -30.102288 -31.991818 -48.719303 -21.584200 36.334089 -0.557737 -28.732351 -8.418946 -1.280499 4.261864 -8.591002 32.022073 -4.161348 52.261627 44.819220 0.521690 -3.281847 -7.466411 -8.806397 15.616475 12.218294 -12.419549 11.550213 0.000000 38.920692 0.000000 -4.134816 -13.434649 -11.385803 0.000000 -3.268701 0.000000 1.195139 -16.085263 -28.117176 0.000000 41.696166 0.000000 0.168371 -13.866462 17.800549 0.000000 -2.409941 0.000000
-112.303320 84.506458 60.429315 -6.648762 -7.361844 7.642423 2.368616 5.621259 0.614385 2.592672 6.690919 -0.740245 2.927839 7.748938 -2.205804 0.075275 8.902433 -3.069555 -3.865988 -3.968238 -3.419956 -1.845141 -6.520594 -0.741685 12.023467 16.082207 -5.412704 -49.114736 -30.409282 -31.940780 -50.693551 -21.476521 35.136539 -1.972065 -26.759932 -9.742266 -1.713006 4.509969 -9.336234 38.430507 -3.656520 48.706941 50.687718 2.892610 -3.440395 -5.070902 -4.697860 17.940860 12.245876 -9.750024 11.169508 0.000000 38.162526 0.000000 -3.560699 -13.386619 -11.520065 0.000000 -3.248017 0.000000 1.544133 -14.153825 -28.841133 0.000000 41.721286 0.000000 0.316138 -14.105166 17.816413 0.000000 -2.463767 0.000000
-112.262329 84.502191 60.789313 -7.225307 -8.783001 8.422576 2.424554 5.959537 0.733987 2.623962 6.998274 -0.878361 3.123836 7.731331 -2.635122 0.097464 8.831062 -3.234620 -3.742730 -2.369982 -4.022191 -1.798492 -5.344015 -0.538385 12.693400 16.471958 -5.205959 -51.172530 -28.905964 -31.648524 -52.959046 -20.354202 35.228992 -2.451130 -27.047680 -11.157132 -2.477969 4.907034 -10.042985 44.211456 -3.483255 44.927698 56.696214 4.939296 -4.310197 -4.793194 -5.320618 21.162385 12.148550 -7.334840 10.631583 0.000000 37.491822 0.000000 -2.849725 -13.305652 -11.704293 0.000000 -3.235043 0.000000 1.844097 -12.495041 -29.652175 0.000000 41.800145 0.000000 0.506872 -14.423521 17.783221 0.000000 -2.387478 0.000000
-112.252795 84.505157 61.093292 -7.800647 -9.700649 9.091259 2.434192 6.276835 0.709541 2.619113 6.781639 -0.925320 3.258600 7.689451 -2.728261 0.075190 8.663751 -3.635949 -3.451790 -0.520822 -4.773816 -1.676231 -4.617225 -0.238529 13.284708 16.853234 -5.216789 -52.728437 -26.473216 -30.776818 -56.159321 -19.361465 35.483670 -2.887144 -28.306471 -12.479365 -3.168035 5.023494 -10.731028 49.175824 -3.553136 41.395048 62.233054 5.736041 -5.891162 -5.716115 -6.763212 23.810632 12.026586 -5.543526 10.107411 0.000000 36.931861 0.000000 -2.112021 -13.209340 -11.896052 0.000000 -3.277962 0.000000 2.351081 -11.341012 -30.269764 0.000000 41.947867 0.000000 0.485368 -14.659040 17.685768 0.000000 -2.357164 0.000000
-112.233826 84.537885 61.422211 -8.282060 -10.341957 9.692960 2.437361 6.064087 0.687906 2.618409 6.736027 -0.977206 3.377094 7.699951 -2.762294 0.078151 8.422601 -3.962807 -3.186054 1.493782 -5.413753 -1.533015 -4.073802 -0.012912 13.325588 16.981376 -5.335313 -53.412617 -23.570727 -30.148020 -60.215864 -17.758439 36.485129 -2.625827 -29.982533 -13.139864 -3.716754 4.764498 -11.333551 52.840521 -4.140198 38.322192 67.475547 5.100303 -7.569325 -6.180685 -8.956780 25.273569 11.687152 -3.976257 9.521533 0.000000 36.287084 0.000000 -1.230400 -13.070688 -12.148660 0.000000 -3.341586 0.000000 2.735886 -10.417031 -30.826214 0.000000 41.989923 0.000000 0.470738 -14.884649 17.632470 0.000000 -2.243048 0.000000
-112.234070 84.583502 61.639349 -8.808636 -10.533213 10.182601 2.564971 5.795699 1.026327 2.708686 6.500163 -1.096612 3.288378 7.639590 -3.256660 -0.158188 8.066312 -4.349757 -2.739522 3.402994 -5.621081 -1.281653 -3.546093 0.013225 13.435274 16.686405 -5.321751 -53.145876 -20.594962 -29.486195 -64.846772 -16.378796 37.823588 -2.905662 -30.975415 -14.253778 -3.788964 4.275801 -11.819204 55.431021 -5.781362 36.147359 72.452183 3.288900 -9.499922 -5.839042 -9.616954 25.892306 11.448045 -3.053622 8.958830 0.000000 35.809109 0.000000 -0.351934 -12.895337 -12.315076 0.000000 -3.373024 0.000000 3.288014 -10.044930 -31.216503 0.000000 42.066563 0.000000 0.391975 -14.924625 17.428977 0.000000 -2.380928 0.000000
-112.250562 84.642468 61.821106 -9.195340 -10.591558 10.627976 2.876222 5.739238 1.104420 2.981905 6.159459 -1.213290 3.071227 7.324798 -3.517699 -0.455752 7.596394 -4.328114 -2.444269 5.265543 -5.939318 -1.091352 -2.944493 -0.140806 13.406974 16.490706 -5.609581 -52.463052 -18.556025 -28.931257 -69.653721 -14.401973 39.026090 -2.491720 -30.904122 -14.969805 -3.810531 3.604446 -12.853535 56.680080 -8.359903 35.031771 77.111109 2.138840 -10.980764 -5.274755 -11.045381 25.499070 11.174575 -2.333423 8.406600 0.000000 35.295345 0.000000 0.420093 -12.665851 -12.478724 0.000000 -3.453080 0.000000 3.647550 -9.886678 -31.601263 0.000000 42.156354 0.000000 0.358105 -14.996951 17.299651 0.000000 -2.326408 0.000000
-112.316699 84.714465 61.961011 -9.611716 -10.260166 10.916080 3.174561 5.536604 1.195892 3.213830 5.655520 -1.229101 2.889414 6.870976 -3.726104 -0.741602 7.161997 -4.697308 -2.119550 6.999408 -5.755811 -0.891333 -2.239415 -0.387724 13.467260 16.166385 -5.772646 -51.169360 -17.338398 -28.283355 -73.586753 -11.346432 39.848105 -2.355022 -30.656497 -15.606490 -3.569144 2.826064 -13.551180 57.392593 -11.274064 34.245897 81.509009 0.277598 -12.886248 -5.500088 -12.018049 26.702959 11.162733 -2.107817 8.031392 0.000000 34.836020 0.000000 0.975295 -12.430368 -12.582021 0.000000 -3.598412 0.000000 4.007920 -10.222088 -31.829609 0.000000 42.253220 0.000000 0.506019 -15.010374 17.058056 0.000000 -2.352124 0.000000
-112.421899 84.764545 62.004083 -9.851357 -9.662269 11.045574 3.436083 5.301714 1.352547 3.339476 5.289880 -1.423237 2.717951 6.314608 -4.147987 -0.921016 6.388277 -4.547289 -1.771788 8.482491 -5.812615 -0.666766 -1.333647 -0.315295 13.936298 16.070921 -5.939221 -50.253383 -16.862368 -27.347066 -77.082959 -7.553847 40.767930 -1.359814 -32.560922 -16.368520 -3.587588 1.979278 -14.317846 58.273914 -14.228095 33.473990 84.787694 -0.966765 -15.406875 -4.960308 -11.717328 28.636003 11.045302 -2.398277 7.769549 0.000000 34.587141 0.000000 1.473833 -12.262608 -12.704080 0.000000 -3.637732 0.000000 4.104364 -11.033373 -31.970452 0.000000 42.400533 0.000000 0.859069 -15.042734 16.850182 0.000000 -2.387929 0.000000
-112.607703 84.837720 62.037012 -9.782833 -8.940171 10.911397 3.414808 5.005691 1.160640 3.249500 4.739706 -1.457746 2.708420 5.728439 -4.048268 -0.913198 5.806661 -4.506520 -1.510763 9.696922 -5.821247 -0.499319 -0.590031 -0.364671 14.567524 15.809624 -6.046132 -49.667020 -16.512748 -26.177377 -79.674167 -3.355456 41.969536 -0.653163 -36.178692 -16.819592 -3.760655 1.186420 -14.753186 59.341701 -16.103215 32.426953 88.265003 -1.972720 -18.913877 -5.027122 -11.900800 29.185224 10.878373 -3.008781 7.815018 0.000000 34.386109 0.000000 1.660847 -12.085508 -12.823276 0.000000 -3.645298 0.000000 3.798632 -11.947788 -31.815533 0.000000 42.399444 0.000000 1.190364 -15.109125 16.585403 0.000000 -2.339418 0.000000
